<?xml version="1.0" encoding="UTF-8"?>
<svg id="Layer_1" data-name="Layer 1" xmlns="http://www.w3.org/2000/svg" viewBox="0 0 271.37 234.67">
  <defs>
    <style>
      .cls-1 {
        fill: #333;
      }

      .cls-1, .cls-2 {
        stroke-width: 0px;
      }

      .cls-2, .cls-3 {
        fill: #333;
      }

      .cls-3 {
        font-family: Arial-BoldMT, Arial;
        font-size: 40.35px;
        font-weight: 700;
      }

      .cls-3, .cls-4 {
        isolation: isolate;
      }
    </style>
  </defs>
  <g>
    <path class="cls-2" d="M210.49,0c8.07,0,11.53,3.46,10.38,11.53q-2.31,10.38-11.53,11.53c-12.68,1.15-24.21,2.31-36.89,6.92-3.46,0-4.61,0-4.61-3.46s2.31-6.92,2.31-10.38c0-8.07,3.46-10.38,10.38-11.53,10.38-1.15,20.75-3.46,29.97-3.46h0V0Z"/>
    <path class="cls-1" d="M191,41.5c-5.76,0-10.38,2.31-16.14,3.46-4.61,0-6.92,2.31-6.92,8.07,0,3.46-1.15,6.92-2.31,10.38,0,3.46-2.31,4.61-4.61,2.31-8.07-5.76-17.29-9.22-27.67-9.22h-10.38c-25.36,4.61-44.96,29.97-40.35,58.79,3.46,23.06,24.21,42.65,46.11,42.65,27.67,1.15,48.42-17.29,53.03-41.5,4.61-24.21,8.07-48.42,12.68-72.63,0-3.46,0-4.61-3.46-3.46h0v1.15ZM132.2,133.72c-13.83,0-25.36-11.53-25.36-25.36s11.53-25.36,25.36-25.36,25.36,11.53,25.36,25.36-11.53,25.36-25.36,25.36h0Z"/>
  </g>
  <g class="cls-4">
    <g class="cls-4">
      <g class="cls-4">
        <text class="cls-3" transform="translate(.11 219.48) rotate(-.19)"><tspan x="0" y="0">SWIFTSOUND</tspan></text>
      </g>
    </g>
  </g>
</svg>