<?xml version="1.0" encoding="UTF-8"?>
<svg id="Layer_1" data-name="Layer 1" xmlns="http://www.w3.org/2000/svg" version="1.1" viewBox="0 0 30 30">
  <defs>
    <style>
      .cls-1 {
        fill: #000;
      }

      .cls-1, .cls-2 {
        stroke-width: 0px;
      }

      .cls-3 {
        font-family: Arial-BoldMT, Arial;
        font-size: 3.5px;
        font-weight: 700;
      }

      .cls-3, .cls-4 {
        isolation: isolate;
      }

      .cls-3, .cls-2 {
        fill: #231f20;
      }
    </style>
  </defs>
  <g>
    <path class="cls-2" d="M21.5,4.6c.7,0,1,.3.9,1q-.2.9-1,1c-1.1,0-2.1.2-3.2.6-.3,0-.4,0-.4-.3s.2-.6.2-.9c0-.7.3-.9.9-1,.9,0,1.8-.3,2.6-.3h0Z"/>
    <path class="cls-1" d="M19.4,8.2c-.5,0-.9.2-1.4.3-.4,0-.6.2-.6.7s-.1.6-.2.9c0,.3-.2.4-.4.2-.7-.5-1.5-.8-2.4-.8h-.9c-2.2.4-3.9,2.6-3.5,5.1.3,2,2.1,3.7,4,3.7,2.4.1,4.2-1.5,4.6-3.6s.7-4.2,1.1-6.3c0-.3,0-.4-.3-.3h0ZM14.3,16.2c-1.2,0-2.2-1-2.2-2.2s1-2.2,2.2-2.2,2.2,1,2.2,2.2-1,2.2-2.2,2.2h0Z"/>
  </g>
  <g class="cls-4">
    <g class="cls-4">
      <g class="cls-4">
        <text class="cls-3" transform="translate(2.1 23.6) rotate(-.2)"><tspan x="0" y="0">SWIFTSOUND</tspan></text>
      </g>
    </g>
  </g>
</svg>