<svg class="svg-icon" style="width: 1em; height: 1em;vertical-align: middle;fill: currentColor;overflow: hidden;" viewBox="0 0 1024 1024" version="1.1" xmlns="http://www.w3.org/2000/svg"><path d="M428.2368 674.2016c-1.6384 0-3.4816 0-5.12-0.2048-2.4576 0-4.096 0.2048-5.9392 0.2048-82.944 0-150.3232-70.8608-150.3232-157.9008 0-55.0912 31.1296-95.4368 61.44-127.3856l94.208-99.1232 94.208 99.1232c30.5152 31.9488 61.44 72.2944 61.44 127.3856 0.4096 87.04-66.9696 157.9008-149.9136 157.9008z m-5.3248-8.8064c2.048 0 3.6864 0.2048 5.3248 0.2048 78.0288 0 141.5168-66.9696 141.5168-149.2992 0-52.0192-29.9008-90.5216-59.1872-121.4464l-87.8592-92.5696-87.8592 92.5696c-29.2864 30.72-59.1872 69.2224-59.1872 121.4464 0 82.3296 63.488 149.2992 141.5168 149.2992 1.6384 0 3.2768 0 4.7104-0.2048h1.024z" fill="#727272" /><path d="M465.1008 606.0032c-4.5056 0-8.3968-3.4816-8.6016-8.192-0.4096-4.7104 3.2768-9.0112 7.9872-9.216 10.6496-0.8192 20.48-5.7344 27.648-14.336s10.6496-19.8656 10.0352-31.5392c-0.4096-4.7104 3.2768-9.0112 7.9872-9.216 4.9152-0.2048 9.0112 3.2768 9.216 7.9872 1.024 15.9744-3.8912 31.5392-13.9264 43.6224-10.24 12.288-24.3712 19.6608-39.7312 20.6848-0.2048 0.2048-0.4096 0.2048-0.6144 0.2048zM697.9584 388.3008h-5.5296c-42.3936 0-76.8-36.0448-76.8-80.4864 0-28.0576 15.7696-48.5376 31.1296-64.7168l48.3328-50.7904 48.3328 50.7904c15.36 16.1792 31.1296 36.6592 31.1296 64.7168 0.2048 44.2368-34.2016 80.4864-76.5952 80.4864z m-3.072-8.8064h3.2768c37.4784 0 67.9936-32.1536 67.9936-71.8848 0-24.9856-14.5408-43.8272-28.672-58.7776l-41.984-44.2368-42.1888 44.2368c-14.1312 14.9504-28.672 33.5872-28.672 58.7776 0 39.7312 30.5152 71.8848 67.9936 71.8848h2.2528zM880.8448 811.4176H143.1552c-2.4576 0-4.3008-1.8432-4.3008-4.3008s1.8432-4.3008 4.3008-4.3008h737.6896c2.4576 0 4.3008 1.8432 4.3008 4.3008s-1.8432 4.3008-4.3008 4.3008z" fill="#727272" /><path d="M202.5472 811.4176c-1.4336 0-2.6624-0.6144-3.4816-1.8432-1.4336-1.8432-1.024-4.7104 1.024-6.144L303.104 729.088c2.048-1.4336 4.7104-1.024 6.144 1.024 1.4336 1.8432 1.024 4.7104-1.024 6.144l-103.2192 74.5472c-0.8192 0.4096-1.6384 0.6144-2.4576 0.6144zM305.7664 811.4176c-1.4336 0-2.6624-0.6144-3.4816-1.8432-1.4336-1.8432-1.024-4.7104 1.024-6.144l103.2192-74.5472c1.8432-1.4336 4.7104-1.024 6.144 1.024s1.024 4.7104-1.024 6.144l-103.2192 74.5472c-1.024 0.6144-1.8432 0.8192-2.6624 0.8192zM408.7808 811.4176c-1.4336 0-2.6624-0.6144-3.4816-1.8432-1.4336-1.8432-1.024-4.7104 1.024-6.144l103.2192-74.5472c2.048-1.4336 4.7104-1.024 6.144 1.024 1.4336 1.8432 1.024 4.7104-1.024 6.144l-103.2192 74.5472c-0.8192 0.6144-1.6384 0.8192-2.6624 0.8192zM512 811.4176c-1.4336 0-2.6624-0.6144-3.4816-1.8432-1.4336-1.8432-1.024-4.7104 1.024-6.144l103.2192-74.5472c1.8432-1.4336 4.7104-1.024 6.144 1.024s1.024 4.7104-1.024 6.144l-103.2192 74.5472c-0.8192 0.6144-1.8432 0.8192-2.6624 0.8192zM615.2192 811.4176c-1.4336 0-2.6624-0.6144-3.4816-1.8432-1.4336-1.8432-1.024-4.7104 1.024-6.144l103.2192-74.5472c1.8432-1.4336 4.7104-1.024 6.144 1.024 1.4336 1.8432 1.024 4.7104-1.024 6.144l-103.2192 74.5472c-1.024 0.6144-1.8432 0.8192-2.6624 0.8192zM718.2336 811.4176c-1.4336 0-2.6624-0.6144-3.4816-1.8432-1.4336-1.8432-1.024-4.7104 1.024-6.144l103.2192-74.5472c1.8432-1.4336 4.7104-1.024 6.144 1.024 1.4336 1.8432 1.024 4.7104-1.024 6.144L720.896 810.5984c-0.8192 0.6144-1.6384 0.8192-2.6624 0.8192z" fill="#727272" /></svg>